<?xml version="1.0" encoding="UTF-8" standalone="no"?>
<!-- Created with Inkscape (http://www.inkscape.org/) -->
<svg
   xmlns:svg="http://www.w3.org/2000/svg"
   xmlns="http://www.w3.org/2000/svg"
   version="1.0"
   width="1133.8583"
   height="239.88188"
   id="svg2">
  <defs
     id="defs4">
    <clipPath
       id="clipPath2510">
      <path
         d="M 0,0 L 1776.189,0 L 1776.189,841.89 L 0,841.89 L 0,0 z"
         id="path2512" />
    </clipPath>
    <clipPath
       id="clipPath2502">
      <path
         d="M 0,0 L 1776.189,0 L 1776.189,841.89 L 0,841.89 L 0,0 z"
         id="path2504" />
    </clipPath>
    <clipPath
       id="clipPath2494">
      <path
         d="M 0,0 L 1776.189,0 L 1776.189,841.89 L 0,841.89 L 0,0 z"
         id="path2496" />
    </clipPath>
    <clipPath
       id="clipPath2486">
      <path
         d="M 0,0 L 1776.189,0 L 1776.189,841.89 L 0,841.89 L 0,0 z"
         id="path2488" />
    </clipPath>
    <clipPath
       id="clipPath2466">
      <path
         d="M 62.158,794.821 L 143.379,794.821 L 143.379,829.377 L 62.158,829.377 L 62.158,794.821 z"
         id="path2468" />
    </clipPath>
    <clipPath
       id="clipPath2442">
      <path
         d="M 595.275,23.015 L 628.157,23.015 L 628.157,75.25 L 595.275,75.25 L 595.275,23.015 z"
         id="path2444" />
    </clipPath>
    <clipPath
       id="clipPath2836">
      <path
         d="M 0.03,898.59 L 2409.45,898.59 L 2409.45,0.03 L 0.03,0.03 L 0.03,898.59 z"
         id="path2838" />
    </clipPath>
    <clipPath
       id="clipPath2828">
      <path
         d="M 0,898 L 2409,898 L 2409,0 L 0,0 L 0,898 z"
         id="path2830" />
    </clipPath>
    <clipPath
       id="clipPath2820">
      <path
         d="M 0.03,898.59 L 2409.45,898.59 L 2409.45,0.03 L 0.03,0.03 L 0.03,898.59 z"
         id="path2822" />
    </clipPath>
    <clipPath
       id="clipPath2812">
      <path
         d="M 0,898 L 2409,898 L 2409,0 L 0,0 L 0,898 z"
         id="path2814" />
    </clipPath>
    <clipPath
       id="clipPath2678">
      <path
         d="M 0.03,898.59 L 2409.45,898.59 L 2409.45,0.03 L 0.03,0.03 L 0.03,898.59 z"
         id="path2680" />
    </clipPath>
    <clipPath
       id="clipPath2670">
      <path
         d="M 0,898 L 2409,898 L 2409,0 L 0,0 L 0,898 z"
         id="path2672" />
    </clipPath>
    <clipPath
       id="clipPath2656">
      <path
         d="M 0.03,898.59 L 2409.45,898.59 L 2409.45,0.03 L 0.03,0.03 L 0.03,898.59 z"
         id="path2658" />
    </clipPath>
    <clipPath
       id="clipPath2648">
      <path
         d="M 0,898 L 2409,898 L 2409,0 L 0,0 L 0,898 z"
         id="path2650" />
    </clipPath>
    <clipPath
       id="clipPath2640">
      <path
         d="M 587.253,449 L 885.6,449 L 885.6,19.551 L 587.253,19.551 L 587.253,449 z"
         id="path2642" />
    </clipPath>
  </defs>
  <g
     transform="translate(-201.55886,-27.991579)"
     id="layer1">
    <g
       transform="translate(35.433068,35.498355)"
       id="g3214">
      <path
         d="M 266.09713,52.741869 L 266.09713,30.324279 C 250.7818,34.031619 237.09798,41.960049 226.30921,52.741869 L 266.09713,52.741869"
         id="path2684"
         style="fill:#469dd7;fill-opacity:1;fill-rule:nonzero;stroke:none" />
      <path
         d="M 305.89193,52.741869 L 305.89193,30.324279 C 321.21421,34.031619 334.90497,41.960049 345.6868,52.741869 L 305.89193,52.741869"
         id="path2688"
         style="fill:#0081c8;fill-opacity:1;fill-rule:nonzero;stroke:none" />
      <path
         d="M 286.07093,27.991579 C 279.2186,27.991579 272.4843,28.789969 266.09713,30.324279 L 266.09713,52.741869 L 305.89199,52.741869 L 305.89199,30.345109 C 299.51176,28.810799 292.90937,27.991579 286.07093,27.991579"
         id="path2692"
         style="fill:#a0c2e4;fill-opacity:1;fill-rule:nonzero;stroke:none" />
      <path
         d="M 305.89193,172.12646 L 305.89193,194.5371 C 321.21421,190.82976 334.90497,182.90134 345.6868,172.12646 L 305.89193,172.12646"
         id="path2696"
         style="fill:#0081c8;fill-opacity:1;fill-rule:nonzero;stroke:none" />
      <path
         d="M 266.09713,172.12646 L 266.09713,194.5371 C 250.7818,190.82976 237.09798,182.90134 226.30921,172.12646 L 266.09713,172.12646"
         id="path2700"
         style="fill:#0081c8;fill-opacity:1;fill-rule:nonzero;stroke:none" />
      <path
         d="M 285.92502,196.87675 C 292.78429,196.87675 299.51165,196.07835 305.89188,194.5371 L 305.89188,172.12646 L 266.09702,172.12646 L 266.09702,194.51627 C 272.48419,196.05753 279.0727,196.87675 285.92502,196.87675"
         id="path2704"
         style="fill:#469dd7;fill-opacity:1;fill-rule:nonzero;stroke:none" />
      <path
         d="M 345.6868,92.529789 L 368.10438,92.529789 C 364.39705,77.221399 356.47556,63.530639 345.6868,52.741869 L 345.6868,92.529789"
         id="path2708"
         style="fill:#0081c8;fill-opacity:1;fill-rule:nonzero;stroke:none" />
      <path
         d="M 345.6868,132.33159 L 368.10438,132.33159 C 364.39705,147.64692 356.47556,161.33769 345.6868,172.12646 L 345.6868,132.33159"
         id="path2712"
         style="fill:#0081c8;fill-opacity:1;fill-rule:nonzero;stroke:none" />
      <path
         d="M 370.44409,112.50359 C 370.44409,105.65126 369.64569,98.910019 368.10444,92.529789 L 345.68685,92.529789 L 345.68685,132.33159 L 368.07667,132.33159 C 369.62486,125.95136 370.44409,119.34897 370.44409,112.50359"
         id="path2716"
         style="fill:#469dd7;fill-opacity:1;fill-rule:nonzero;stroke:none" />
      <path
         d="M 226.30915,132.33159 L 203.89851,132.33159 C 207.59196,147.64692 215.52733,161.33769 226.30915,172.12646 L 226.30915,132.33159"
         id="path2720"
         style="fill:#0081c8;fill-opacity:1;fill-rule:nonzero;stroke:none" />
      <path
         d="M 226.30915,92.529789 L 203.89851,92.529789 C 207.59196,77.221399 215.52733,63.530639 226.30915,52.741869 L 226.30915,92.529789"
         id="path2724"
         style="fill:#469dd7;fill-opacity:1;fill-rule:nonzero;stroke:none" />
      <path
         d="M 201.55886,112.35785 C 201.55886,119.21712 202.35726,125.95142 203.89851,132.33165 L 226.30915,132.33165 L 226.30915,92.529849 L 203.91934,92.529849 C 202.37114,98.910079 201.55886,105.51941 201.55886,112.35785"
         id="path2728"
         style="fill:#a0c2e4;fill-opacity:1;fill-rule:nonzero;stroke:none" />
      <path
         d="M 226.30915,92.529789 L 266.09707,92.529789 L 266.09707,52.734929 L 226.30915,52.734929 L 226.30915,92.529789 z"
         id="path2730"
         style="fill:#93cc84;fill-opacity:1;fill-rule:nonzero;stroke:none" />
      <path
         d="M 226.30915,132.33159 L 266.09707,132.33159 L 266.09707,92.529789 L 226.30915,92.529789 L 226.30915,132.33159 z"
         id="path2732"
         style="fill:#c6e3bd;fill-opacity:1;fill-rule:nonzero;stroke:none" />
      <path
         d="M 226.30915,172.12646 L 266.09707,172.12646 L 266.09707,132.33159 L 226.30915,132.33159 L 226.30915,172.12646 z"
         id="path2734"
         style="fill:#6ebf5d;fill-opacity:1;fill-rule:nonzero;stroke:none" />
      <path
         d="M 266.09707,92.529789 L 305.89193,92.529789 L 305.89193,52.734929 L 266.09707,52.734929 L 266.09707,92.529789 z"
         id="path2736"
         style="fill:#c6e3bd;fill-opacity:1;fill-rule:nonzero;stroke:none" />
      <path
         d="M 266.09707,132.33159 L 305.89193,132.33159 L 305.89193,92.529789 L 266.09707,92.529789 L 266.09707,132.33159 z"
         id="path2738"
         style="fill:#e4105b;fill-opacity:1;fill-rule:nonzero;stroke:none" />
      <path
         d="M 266.09707,172.12646 L 305.89193,172.12646 L 305.89193,132.33159 L 266.09707,132.33159 L 266.09707,172.12646 z"
         id="path2740"
         style="fill:#93cc84;fill-opacity:1;fill-rule:nonzero;stroke:none" />
      <path
         d="M 305.89193,92.529789 L 345.6868,92.529789 L 345.6868,52.734929 L 305.89193,52.734929 L 305.89193,92.529789 z"
         id="path2742"
         style="fill:#6ebf5d;fill-opacity:1;fill-rule:nonzero;stroke:none" />
      <path
         d="M 305.89193,132.33159 L 345.6868,132.33159 L 345.6868,92.529789 L 305.89193,92.529789 L 305.89193,132.33159 z"
         id="path2744"
         style="fill:#93cc84;fill-opacity:1;fill-rule:nonzero;stroke:none" />
      <path
         d="M 305.89193,172.12646 L 345.6868,172.12646 L 345.6868,132.33159 L 305.89193,132.33159 L 305.89193,172.12646 z"
         id="path2746"
         style="fill:#6ebf5d;fill-opacity:1;fill-rule:nonzero;stroke:none" />
      <path
         d="M 510.31611,172.52224 L 502.7001,172.52224 L 485.30894,123.65343 C 483.87183,119.63367 482.15007,114.6003 480.42137,108.85879 L 480.13672,108.85879 C 478.40802,114.45451 476.68626,119.20323 475.10335,123.65343 L 456.99711,172.52224 L 449.2353,172.52224 L 416.32054,77.381139 L 427.67165,77.381139 L 448.80486,140.62109 C 450.52662,145.9391 452.10953,150.68089 453.40085,155.42267 L 453.6855,155.42267 C 454.98376,150.82668 456.85131,146.0849 458.71887,140.90573 L 475.10335,96.063619 L 468.63287,77.381139 L 479.70628,77.381139 L 501.40878,140.04486 C 503.27634,145.50866 505.14389,150.10465 506.43521,154.70758 L 506.7268,154.70758 C 507.87232,149.95886 509.16364,145.64752 510.89235,140.47529 L 531.58817,77.381139 L 542.65464,77.381139 L 510.31611,172.52224"
         id="path2750"
         style="fill:#696a6d;fill-opacity:1;fill-rule:nonzero;stroke:none" />
      <path
         d="M 573.3895,111.30252 C 560.59432,111.30252 553.26296,121.64697 553.26296,137.73986 C 553.26296,153.8397 560.87897,164.47573 573.52835,164.47573 C 586.17773,164.47573 593.79373,153.8397 593.79373,137.73986 C 593.79373,121.64697 586.46931,111.30252 573.3895,111.30252 z M 594.80041,165.05197 C 589.48239,170.51578 582.00524,173.5358 573.2437,173.5358 C 564.75987,173.5358 557.43545,170.65463 552.11743,165.19082 C 545.9316,158.87307 542.62693,149.24372 542.62693,138.03145 C 542.62693,126.81919 546.07739,117.48142 552.11743,111.15673 C 557.5743,105.54713 564.90566,102.38825 573.3895,102.38825 C 582.15103,102.38825 589.48239,105.54713 594.9462,111.15673 C 600.9793,117.48142 604.42977,126.81919 604.42977,138.03145 C 604.42977,149.24372 600.9793,158.72728 594.80041,165.05197"
         id="path2754"
         style="fill:#696a6d;fill-opacity:1;fill-rule:nonzero;stroke:none" />
      <path
         d="M 630.02011,173.5358 C 621.67513,173.5358 618.08582,168.21084 618.08582,161.02527 L 618.08582,70.341309 L 628.57605,70.341309 L 628.57605,156.28349 C 628.57605,162.74703 630.15896,164.04529 634.18566,164.04529 C 634.90074,164.04529 636.05321,164.04529 637.77497,163.61485 L 639.06629,171.23781 C 635.90742,172.81377 633.46363,173.5358 630.02011,173.5358"
         id="path2758"
         style="fill:#696a6d;fill-opacity:1;fill-rule:nonzero;stroke:none" />
      <path
         d="M 668.24589,173.5358 C 658.47074,173.5358 653.72896,167.7804 653.72896,159.01887 L 653.72896,113.02428 L 642.66249,113.02428 L 642.66249,104.11001 L 653.72896,104.11001 L 653.72896,89.162639 L 664.22614,85.573329 L 664.22614,104.11001 L 685.06082,104.11001 L 681.32571,113.02428 L 664.22614,113.02428 L 664.22614,155.85305 C 664.22614,161.60151 666.37834,164.19109 670.83548,164.19109 C 675.71611,164.19109 680.17324,161.46266 682.90168,159.30351 L 686.21329,166.77373 C 681.17992,170.51578 674.57058,173.5358 668.24589,173.5358"
         id="path2762"
         style="fill:#696a6d;fill-opacity:1;fill-rule:nonzero;stroke:none" />
      <path
         d="M 717.68401,111.30252 C 707.6312,111.30252 701.29957,120.20985 701.29957,130.98473 L 733.35341,130.98473 C 733.35341,121.50117 728.03541,111.30252 717.68401,111.30252 z M 701.16072,139.89901 C 701.16072,152.83997 708.63093,164.33688 723.72411,164.33688 C 729.47251,164.33688 735.79031,162.03889 739.82391,159.44931 L 742.98281,166.63488 C 738.10221,170.65463 729.47251,173.5358 721.57191,173.5358 C 700.29289,173.5358 689.94151,156.1377 689.94151,136.74013 C 689.94151,117.04404 701.16072,102.38825 717.54521,102.38825 C 735.08211,102.38825 744.71151,116.32895 744.71151,137.45522 C 744.71151,138.17725 744.71151,139.03813 744.71151,139.89901 L 701.16072,139.89901"
         id="path2766"
         style="fill:#696a6d;fill-opacity:1;fill-rule:nonzero;stroke:none" />
      <path
         d="M 792.70561,114.60025 C 791.27541,114.03096 789.11621,113.45472 786.24201,113.45472 C 782.22231,113.45472 775.60601,116.89824 771.29461,121.64697 L 771.29461,172.09174 L 760.81131,172.09174 L 760.81131,104.11001 L 769.42711,104.11001 L 770.86421,111.87181 C 780.20891,103.39493 785.37421,102.38825 790.26181,102.38825 C 793.28181,102.38825 795.87141,103.53378 797.16271,104.4016 L 792.70561,114.60025"
         id="path2770"
         style="fill:#696a6d;fill-opacity:1;fill-rule:nonzero;stroke:none" />
      <path
         d="M 818.86521,173.5358 C 809.09001,173.5358 803.20271,170.94622 798.73871,168.35664 L 802.77231,160.16439 C 805.92421,162.17774 811.82541,165.05197 819.30261,165.05197 C 827.63371,165.05197 833.66681,161.31686 833.66681,154.99217 C 833.66681,138.3161 802.77231,144.21035 802.77231,120.35565 C 802.77231,110.5805 809.81211,102.38825 825.33571,102.38825 C 832.52121,102.38825 837.97811,103.97116 842.43521,105.97757 L 842.43521,115.17648 C 837.69351,113.17008 832.80591,111.15673 825.76611,111.15673 C 818.86521,111.15673 813.11671,113.60052 813.11671,119.77941 C 813.11671,135.01143 844.58741,131.13053 844.58741,153.40926 C 844.58741,167.63461 832.80591,173.5358 818.86521,173.5358"
         id="path2774"
         style="fill:#696a6d;fill-opacity:1;fill-rule:nonzero;stroke:none" />
      <path
         d="M 937.58321,172.09169 L 899.77391,129.26292 L 899.63511,129.26292 L 899.63511,172.09169 L 889.14491,172.09169 L 889.14491,77.381029 L 899.63511,77.381029 L 899.63511,120.93182 L 899.77391,120.93182 L 934.99361,77.665669 L 948.06651,77.665669 L 909.11871,124.22955 L 951.52391,172.09169 L 937.58321,172.09169"
         id="path2778"
         style="fill:#696a6d;fill-opacity:1;fill-rule:nonzero;stroke:none" />
      <path
         d="M 973.51111,173.5358 C 965.17311,173.5358 961.58381,168.21084 961.58381,161.02527 L 961.58381,70.341309 L 972.07401,70.341309 L 972.07401,156.28349 C 972.07401,162.74703 973.65001,164.04529 977.67671,164.04529 C 978.39871,164.04529 979.55121,164.04529 981.27291,163.61485 L 982.57121,171.23781 C 979.40541,172.81377 976.96161,173.5358 973.51111,173.5358"
         id="path2782"
         style="fill:#696a6d;fill-opacity:1;fill-rule:nonzero;stroke:none" />
      <path
         d="M 1038.4729,172.09169 L 1035.7445,165.05191 C 1030.7111,169.36325 1022.8104,173.53574 1013.7573,173.53574 C 1004.5584,173.53574 993.06151,168.79396 993.06151,149.6741 L 993.06151,104.10996 L 1003.5448,104.10996 L 1003.5448,148.66048 C 1003.5448,160.01854 1008.2935,164.47568 1016.7773,164.47568 C 1025.4,164.47568 1032.0094,159.01881 1034.8766,155.42256 L 1034.8766,104.10996 L 1045.3738,104.10996 L 1045.3738,143.641 C 1045.3738,165.05191 1045.8043,169.21746 1046.8109,172.09169 L 1038.4729,172.09169"
         id="path2786"
         style="fill:#696a6d;fill-opacity:1;fill-rule:nonzero;stroke:none" />
      <path
         d="M 1131.7464,172.52224 L 1122.2628,172.52224 L 1105.309,117.62033 L 1104.8717,117.62033 L 1088.0567,172.52224 L 1078.8578,172.52224 L 1056.1486,104.11007 L 1066.7916,104.11007 L 1083.4608,158.1511 L 1083.8912,158.1511 L 1100.7061,104.11007 L 1110.1966,104.11007 L 1127.1504,158.29689 L 1127.5808,158.29689 L 1143.9653,104.11007 L 1154.1709,104.11007 L 1131.7464,172.52224"
         id="path2790"
         style="fill:#696a6d;fill-opacity:1;fill-rule:nonzero;stroke:none" />
      <path
         d="M 1187.0857,111.30252 C 1177.0189,111.30252 1170.6943,120.20985 1170.6943,130.98473 L 1202.7481,130.98473 C 1202.7481,121.50117 1197.4301,111.30252 1187.0857,111.30252 z M 1170.5554,139.89901 C 1170.5554,152.83997 1178.0256,164.33688 1193.1188,164.33688 C 1198.8672,164.33688 1205.1919,162.03889 1209.2186,159.44931 L 1212.3775,166.63488 C 1207.4899,170.65463 1198.8672,173.5358 1190.9596,173.5358 C 1169.6945,173.5358 1159.3431,156.1377 1159.3431,136.74013 C 1159.3431,117.04404 1170.5554,102.38825 1186.9399,102.38825 C 1204.4699,102.38825 1214.0993,116.32895 1214.0993,137.45522 C 1214.0993,138.17725 1214.0993,139.03813 1214.0993,139.89901 L 1170.5554,139.89901"
         id="path2794"
         style="fill:#696a6d;fill-opacity:1;fill-rule:nonzero;stroke:none" />
      <path
         d="M 1260.0938,114.60025 C 1258.6567,114.03096 1256.5045,113.45472 1253.6303,113.45472 C 1249.6036,113.45472 1242.9943,116.89824 1238.6829,121.64697 L 1238.6829,172.09174 L 1228.1857,172.09174 L 1228.1857,104.11001 L 1236.8084,104.11001 L 1238.2525,111.87181 C 1247.5903,103.39493 1252.7694,102.38825 1257.6501,102.38825 C 1260.6701,102.38825 1263.2597,103.53378 1264.551,104.4016 L 1260.0938,114.60025"
         id="path2798"
         style="fill:#696a6d;fill-opacity:1;fill-rule:nonzero;stroke:none" />
      <path
         d="M 369.8678,163.46212 L 367.06994,163.46212 L 367.06994,172.07786 L 364.57755,172.07786 L 364.57755,163.46212 L 361.47422,163.46212 L 361.47422,161.48348 L 370.38155,161.48348 L 369.8678,163.46212"
         id="path2802"
         style="fill:#696a6d;fill-opacity:1;fill-rule:nonzero;stroke:none" />
      <path
         d="M 380.41358,172.0778 L 380.41358,166.67648 C 380.41358,166.29463 380.41358,165.85725 380.4344,165.53789 L 380.41358,165.53789 C 380.32332,165.76006 379.88594,166.38489 379.71237,166.66259 L 377.96979,169.26606 L 376.89369,169.26606 L 374.91505,166.56539 C 374.69289,166.25992 374.43601,165.94056 374.20691,165.53789 L 374.17914,165.53789 C 374.19302,165.89196 374.19302,166.30852 374.19302,166.60011 L 374.19302,172.0778 L 371.74924,172.0778 L 371.74924,161.48343 L 373.97086,161.48343 L 376.62293,165.18382 C 376.94229,165.63509 377.19916,166.01693 377.44215,166.44043 L 377.47686,166.44043 C 377.67126,166.05164 377.92119,165.60038 378.24749,165.10051 L 380.6288,161.48343 L 382.86431,161.48343 L 382.86431,172.0778 L 380.41358,172.0778"
         id="path2806"
         style="fill:#696a6d;fill-opacity:1;fill-rule:nonzero;stroke:none" />
    </g>
  </g>
</svg>
